M48
; DRILL file {KiCad (6.0.2-0)} date Saturday, March 25, 2023 at 08:24:16 PM
; FORMAT={-:-/ absolute / inch / decimal}
; #@! TF.CreationDate,2023-03-25T20:24:16-04:00
; #@! TF.GenerationSoftware,Kicad,Pcbnew,(6.0.2-0)
; #@! TF.FileFunction,Plated,1,2,PTH
FMAT,2
INCH
; #@! TA.AperFunction,Plated,PTH,ComponentDrill
T1C0.0315
; #@! TA.AperFunction,Plated,PTH,ComponentDrill
T2C0.0394
; #@! TA.AperFunction,Plated,PTH,ComponentDrill
T3C0.0402
%
G90
G05
T1
X5.29Y-2.11
X5.29Y-2.21
X5.29Y-2.31
X5.29Y-2.41
X5.29Y-2.51
X5.29Y-2.61
X5.29Y-2.71
X5.29Y-2.81
X5.29Y-2.91
X5.29Y-3.01
X5.29Y-3.11
X5.29Y-3.21
X5.29Y-3.31
X5.29Y-3.41
X5.29Y-3.51
X5.84Y-4.11
X5.85Y-4.43
X5.89Y-2.11
X5.89Y-2.21
X5.89Y-2.31
X5.89Y-2.41
X5.89Y-2.51
X5.89Y-2.61
X5.89Y-2.71
X5.89Y-2.81
X5.89Y-2.91
X5.89Y-3.01
X5.89Y-3.11
X5.89Y-3.21
X5.89Y-3.31
X5.89Y-3.41
X5.89Y-3.51
X6.14Y-4.11
X6.15Y-4.43
X6.68Y-2.03
X6.68Y-2.33
X7.09Y-2.43
X7.09Y-2.73
T2
X5.4Y-4.24
X5.4Y-4.34
X6.3Y-1.97
X6.3Y-2.07
X6.3Y-2.17
X6.3Y-2.27
X6.3Y-3.02
X6.3Y-3.12
X6.3Y-3.22
X6.73Y-2.55
X6.73Y-2.65
X6.73Y-2.75
X6.99Y-3.0294
X6.99Y-3.1294
X6.99Y-3.2294
T3
X6.55Y-4.35
X6.65Y-4.35
X6.75Y-3.85
X6.75Y-4.35
X6.85Y-3.85
X6.85Y-4.35
X6.95Y-3.85
X6.95Y-4.35
X7.05Y-3.85
X7.05Y-4.35
X7.15Y-3.85
X7.15Y-4.35
X7.25Y-4.35
X7.35Y-4.35
T0
M30
