%TF.GenerationSoftware,KiCad,Pcbnew,(6.0.2-0)*%
%TF.CreationDate,2023-03-25T20:23:26-04:00*%
%TF.ProjectId,SensorNode_PCB,53656e73-6f72-44e6-9f64-655f5043422e,v01*%
%TF.SameCoordinates,Original*%
%TF.FileFunction,Copper,L2,Bot*%
%TF.FilePolarity,Positive*%
%FSLAX46Y46*%
G04 Gerber Fmt 4.6, Leading zero omitted, Abs format (unit mm)*
G04 Created by KiCad (PCBNEW (6.0.2-0)) date 2023-03-25 20:23:26*
%MOMM*%
%LPD*%
G01*
G04 APERTURE LIST*
%TA.AperFunction,ComponentPad*%
%ADD10R,1.600000X1.600000*%
%TD*%
%TA.AperFunction,ComponentPad*%
%ADD11O,1.600000X1.600000*%
%TD*%
%TA.AperFunction,ComponentPad*%
%ADD12R,1.700000X1.700000*%
%TD*%
%TA.AperFunction,ComponentPad*%
%ADD13O,1.700000X1.700000*%
%TD*%
%TA.AperFunction,ComponentPad*%
%ADD14C,1.600000*%
%TD*%
%TA.AperFunction,ComponentPad*%
%ADD15C,1.782000*%
%TD*%
%TA.AperFunction,Conductor*%
%ADD16C,0.200000*%
%TD*%
G04 APERTURE END LIST*
D10*
%TO.P,Nano1,1,D1/TX*%
%TO.N,unconnected-(Nano1-Pad1)*%
X134366000Y-53594000D03*
D11*
%TO.P,Nano1,2,D0/RX*%
%TO.N,unconnected-(Nano1-Pad2)*%
X134366000Y-56134000D03*
%TO.P,Nano1,3,~{RESET}*%
%TO.N,unconnected-(Nano1-Pad3)*%
X134366000Y-58674000D03*
%TO.P,Nano1,4,GND*%
%TO.N,Net-(Accelerometer1-Pad3)*%
X134366000Y-61214000D03*
%TO.P,Nano1,5,D2*%
%TO.N,unconnected-(Nano1-Pad5)*%
X134366000Y-63754000D03*
%TO.P,Nano1,6,~D3*%
%TO.N,unconnected-(Nano1-Pad6)*%
X134366000Y-66294000D03*
%TO.P,Nano1,7,D4*%
%TO.N,Net-(Nano1-Pad7)*%
X134366000Y-68834000D03*
%TO.P,Nano1,8,~D5*%
%TO.N,unconnected-(Nano1-Pad8)*%
X134366000Y-71374000D03*
%TO.P,Nano1,9,~D6*%
%TO.N,unconnected-(Nano1-Pad9)*%
X134366000Y-73914000D03*
%TO.P,Nano1,10,D7*%
%TO.N,unconnected-(Nano1-Pad10)*%
X134366000Y-76454000D03*
%TO.P,Nano1,11,D8*%
%TO.N,unconnected-(Nano1-Pad11)*%
X134366000Y-78994000D03*
%TO.P,Nano1,12,~D9*%
%TO.N,unconnected-(Nano1-Pad12)*%
X134366000Y-81534000D03*
%TO.P,Nano1,13,~D10*%
%TO.N,unconnected-(Nano1-Pad13)*%
X134366000Y-84074000D03*
%TO.P,Nano1,14,~D11*%
%TO.N,unconnected-(Nano1-Pad14)*%
X134366000Y-86614000D03*
%TO.P,Nano1,15,D12*%
%TO.N,unconnected-(Nano1-Pad15)*%
X134366000Y-89154000D03*
%TO.P,Nano1,16,D13*%
%TO.N,unconnected-(Nano1-Pad16)*%
X149606000Y-89154000D03*
%TO.P,Nano1,17,3V3*%
%TO.N,unconnected-(Nano1-Pad17)*%
X149606000Y-86614000D03*
%TO.P,Nano1,18,AREF*%
%TO.N,unconnected-(Nano1-Pad18)*%
X149606000Y-84074000D03*
%TO.P,Nano1,19,A0/D14*%
%TO.N,Net-(Nano1-Pad19)*%
X149606000Y-81534000D03*
%TO.P,Nano1,20,A1/D15*%
%TO.N,Net-(FluidL1-Pad2)*%
X149606000Y-78994000D03*
%TO.P,Nano1,21,A2/D16*%
%TO.N,Net-(Nano1-Pad21)*%
X149606000Y-76454000D03*
%TO.P,Nano1,22,A3/D17*%
%TO.N,Net-(Nano1-Pad22)*%
X149606000Y-73914000D03*
%TO.P,Nano1,23,A4/D18*%
%TO.N,Net-(Accelerometer1-Pad5)*%
X149606000Y-71374000D03*
%TO.P,Nano1,24,A5/D19*%
%TO.N,Net-(Accelerometer1-Pad4)*%
X149606000Y-68834000D03*
%TO.P,Nano1,25,A6/D20*%
%TO.N,unconnected-(Nano1-Pad25)*%
X149606000Y-66294000D03*
%TO.P,Nano1,26,A7/D21*%
%TO.N,unconnected-(Nano1-Pad26)*%
X149606000Y-63754000D03*
%TO.P,Nano1,27,+5V*%
%TO.N,Net-(Nano1-Pad27)*%
X149606000Y-61214000D03*
%TO.P,Nano1,28,~{RESET}*%
%TO.N,unconnected-(Nano1-Pad28)*%
X149606000Y-58674000D03*
%TO.P,Nano1,29,GND*%
%TO.N,Net-(Accelerometer1-Pad3)*%
X149606000Y-56134000D03*
%TO.P,Nano1,30,VIN*%
%TO.N,unconnected-(Nano1-Pad30)*%
X149606000Y-53594000D03*
%TD*%
D12*
%TO.P,B_levels1,1,Sig*%
%TO.N,Net-(B_levels1-Pad1)*%
X137160000Y-107696000D03*
D13*
%TO.P,B_levels1,2,GND*%
%TO.N,Net-(Accelerometer1-Pad3)*%
X137160000Y-110236000D03*
%TD*%
D14*
%TO.P,R1,1*%
%TO.N,Net-(FluidL1-Pad2)*%
X169672000Y-51562000D03*
D11*
%TO.P,R1,2*%
%TO.N,Net-(Nano1-Pad27)*%
X169672000Y-59182000D03*
%TD*%
D12*
%TO.P,FluidL1,1,Pin_1*%
%TO.N,unconnected-(FluidL1-Pad1)*%
X160020000Y-50038000D03*
D13*
%TO.P,FluidL1,2,SIG*%
%TO.N,Net-(FluidL1-Pad2)*%
X160020000Y-52578000D03*
%TO.P,FluidL1,3,GND*%
%TO.N,Net-(Accelerometer1-Pad3)*%
X160020000Y-55118000D03*
%TO.P,FluidL1,4,Pin_4*%
%TO.N,unconnected-(FluidL1-Pad4)*%
X160020000Y-57658000D03*
%TD*%
D12*
%TO.P,Pulse1,1,GND*%
%TO.N,Net-(Accelerometer1-Pad3)*%
X160020000Y-76708000D03*
D13*
%TO.P,Pulse1,2,VIN*%
%TO.N,Net-(Nano1-Pad27)*%
X160020000Y-79248000D03*
%TO.P,Pulse1,3,SIG*%
%TO.N,Net-(Nano1-Pad19)*%
X160020000Y-81788000D03*
%TD*%
D14*
%TO.P,R4,1*%
%TO.N,Net-(Nano1-Pad7)*%
X180086000Y-69342000D03*
D11*
%TO.P,R4,2*%
%TO.N,Net-(Nano1-Pad27)*%
X180086000Y-61722000D03*
%TD*%
D15*
%TO.P,Accelerometer1,1,Vin*%
%TO.N,Net-(Nano1-Pad27)*%
X166370000Y-110490000D03*
%TO.P,Accelerometer1,2,3Vo*%
%TO.N,unconnected-(Accelerometer1-Pad2)*%
X168910000Y-110490000D03*
%TO.P,Accelerometer1,3,GND*%
%TO.N,Net-(Accelerometer1-Pad3)*%
X171450000Y-110490000D03*
%TO.P,Accelerometer1,4,SCL*%
%TO.N,Net-(Accelerometer1-Pad4)*%
X173990000Y-110490000D03*
%TO.P,Accelerometer1,5,SDA*%
%TO.N,Net-(Accelerometer1-Pad5)*%
X176530000Y-110490000D03*
%TO.P,Accelerometer1,6,Do*%
%TO.N,unconnected-(Accelerometer1-Pad6)*%
X179070000Y-110490000D03*
%TO.P,Accelerometer1,7,CS*%
%TO.N,unconnected-(Accelerometer1-Pad7)*%
X181610000Y-110490000D03*
%TO.P,Accelerometer1,8,I1*%
%TO.N,unconnected-(Accelerometer1-Pad8)*%
X184150000Y-110490000D03*
%TO.P,Accelerometer1,9,I2*%
%TO.N,unconnected-(Accelerometer1-Pad9)*%
X186690000Y-110490000D03*
%TO.P,Accelerometer1,10,SCX*%
%TO.N,unconnected-(Accelerometer1-Pad10)*%
X171450000Y-97790000D03*
%TO.P,Accelerometer1,11,SDX*%
%TO.N,unconnected-(Accelerometer1-Pad11)*%
X173990000Y-97790000D03*
%TO.P,Accelerometer1,12,CS*%
%TO.N,unconnected-(Accelerometer1-Pad12)*%
X176530000Y-97790000D03*
%TO.P,Accelerometer1,13,D0*%
%TO.N,unconnected-(Accelerometer1-Pad13)*%
X179070000Y-97790000D03*
%TO.P,Accelerometer1,14,GND*%
%TO.N,unconnected-(Accelerometer1-Pad14)*%
X181610000Y-97790000D03*
%TD*%
D14*
%TO.P,R2,1*%
%TO.N,Net-(B_levels1-Pad1)*%
X148336000Y-104394000D03*
D11*
%TO.P,R2,2*%
%TO.N,Net-(Nano1-Pad21)*%
X155956000Y-104394000D03*
%TD*%
D14*
%TO.P,R3,1*%
%TO.N,Net-(Nano1-Pad21)*%
X156210000Y-112522000D03*
D11*
%TO.P,R3,2*%
%TO.N,Net-(Accelerometer1-Pad3)*%
X148590000Y-112522000D03*
%TD*%
D12*
%TO.P,BodyT1,1,Vin*%
%TO.N,Net-(Nano1-Pad27)*%
X170942000Y-64770000D03*
D13*
%TO.P,BodyT1,2,SIG*%
%TO.N,Net-(Nano1-Pad7)*%
X170942000Y-67310000D03*
%TO.P,BodyT1,3,GND*%
%TO.N,Net-(Accelerometer1-Pad3)*%
X170942000Y-69850000D03*
%TD*%
D12*
%TO.P,Pressure1,1,VIN*%
%TO.N,Net-(Nano1-Pad27)*%
X177546000Y-82027000D03*
D13*
%TO.P,Pressure1,2,SIG*%
%TO.N,Net-(Nano1-Pad22)*%
X177546000Y-79487000D03*
%TO.P,Pressure1,3,GND*%
%TO.N,Net-(Accelerometer1-Pad3)*%
X177546000Y-76947000D03*
%TD*%
D16*
%TO.N,Net-(Nano1-Pad27)*%
X160020000Y-79248000D02*
X166116000Y-85344000D01*
X166116000Y-91694000D02*
X166370000Y-91948000D01*
X166116000Y-85344000D02*
X166116000Y-91694000D01*
X186182000Y-61722000D02*
X180086000Y-61722000D01*
X166878000Y-59182000D02*
X169672000Y-59182000D01*
X149606000Y-61214000D02*
X166116000Y-61214000D01*
X166878000Y-60452000D02*
X166878000Y-59182000D01*
X185913000Y-82027000D02*
X186182000Y-82296000D01*
X186182000Y-82296000D02*
X186182000Y-61722000D01*
X166116000Y-61214000D02*
X166878000Y-60452000D01*
X166370000Y-91948000D02*
X166370000Y-110490000D01*
X177546000Y-82027000D02*
X185913000Y-82027000D01*
%TO.N,Net-(Accelerometer1-Pad3)*%
X160020000Y-76708000D02*
X170688000Y-76708000D01*
X170688000Y-76708000D02*
X170942000Y-76454000D01*
X170942000Y-76454000D02*
X170942000Y-69850000D01*
%TO.N,Net-(Nano1-Pad7)*%
X174498000Y-45974000D02*
X175006000Y-46482000D01*
X174244000Y-67310000D02*
X170942000Y-67310000D01*
X129032000Y-45974000D02*
X174498000Y-45974000D01*
X174498000Y-67564000D02*
X174244000Y-67310000D01*
X175006000Y-46482000D02*
X175006000Y-67056000D01*
X129032000Y-68834000D02*
X129032000Y-45974000D01*
X134366000Y-68834000D02*
X129032000Y-68834000D01*
X175006000Y-67056000D02*
X174498000Y-67564000D01*
%TO.N,Net-(FluidL1-Pad2)*%
X142494000Y-78740000D02*
X142748000Y-78994000D01*
X142494000Y-52832000D02*
X142494000Y-78740000D01*
X160020000Y-52578000D02*
X142748000Y-52578000D01*
X142748000Y-52578000D02*
X142494000Y-52832000D01*
X142748000Y-78994000D02*
X149606000Y-78994000D01*
%TO.N,Net-(Nano1-Pad21)*%
X155448000Y-76454000D02*
X149606000Y-76454000D01*
X155956000Y-104394000D02*
X155956000Y-76962000D01*
X155956000Y-76962000D02*
X155448000Y-76454000D01*
%TD*%
M02*
