%TF.GenerationSoftware,KiCad,Pcbnew,(6.0.2-0)*%
%TF.CreationDate,2023-03-25T20:23:26-04:00*%
%TF.ProjectId,SensorNode_PCB,53656e73-6f72-44e6-9f64-655f5043422e,v01*%
%TF.SameCoordinates,Original*%
%TF.FileFunction,Legend,Top*%
%TF.FilePolarity,Positive*%
%FSLAX46Y46*%
G04 Gerber Fmt 4.6, Leading zero omitted, Abs format (unit mm)*
G04 Created by KiCad (PCBNEW (6.0.2-0)) date 2023-03-25 20:23:26*
%MOMM*%
%LPD*%
G01*
G04 APERTURE LIST*
%ADD10C,0.150000*%
%ADD11C,0.120000*%
%ADD12C,0.203200*%
G04 APERTURE END LIST*
D10*
X190818761Y-69658857D02*
X190866380Y-69516000D01*
X190866380Y-69277904D01*
X190818761Y-69182666D01*
X190771142Y-69135047D01*
X190675904Y-69087428D01*
X190580666Y-69087428D01*
X190485428Y-69135047D01*
X190437809Y-69182666D01*
X190390190Y-69277904D01*
X190342571Y-69468380D01*
X190294952Y-69563619D01*
X190247333Y-69611238D01*
X190152095Y-69658857D01*
X190056857Y-69658857D01*
X189961619Y-69611238D01*
X189914000Y-69563619D01*
X189866380Y-69468380D01*
X189866380Y-69230285D01*
X189914000Y-69087428D01*
X190342571Y-68658857D02*
X190342571Y-68325523D01*
X190866380Y-68182666D02*
X190866380Y-68658857D01*
X189866380Y-68658857D01*
X189866380Y-68182666D01*
X190866380Y-67754095D02*
X189866380Y-67754095D01*
X190866380Y-67182666D01*
X189866380Y-67182666D01*
X190818761Y-66754095D02*
X190866380Y-66611238D01*
X190866380Y-66373142D01*
X190818761Y-66277904D01*
X190771142Y-66230285D01*
X190675904Y-66182666D01*
X190580666Y-66182666D01*
X190485428Y-66230285D01*
X190437809Y-66277904D01*
X190390190Y-66373142D01*
X190342571Y-66563619D01*
X190294952Y-66658857D01*
X190247333Y-66706476D01*
X190152095Y-66754095D01*
X190056857Y-66754095D01*
X189961619Y-66706476D01*
X189914000Y-66658857D01*
X189866380Y-66563619D01*
X189866380Y-66325523D01*
X189914000Y-66182666D01*
X189866380Y-65563619D02*
X189866380Y-65373142D01*
X189914000Y-65277904D01*
X190009238Y-65182666D01*
X190199714Y-65135047D01*
X190533047Y-65135047D01*
X190723523Y-65182666D01*
X190818761Y-65277904D01*
X190866380Y-65373142D01*
X190866380Y-65563619D01*
X190818761Y-65658857D01*
X190723523Y-65754095D01*
X190533047Y-65801714D01*
X190199714Y-65801714D01*
X190009238Y-65754095D01*
X189914000Y-65658857D01*
X189866380Y-65563619D01*
X190866380Y-64135047D02*
X190390190Y-64468380D01*
X190866380Y-64706476D02*
X189866380Y-64706476D01*
X189866380Y-64325523D01*
X189914000Y-64230285D01*
X189961619Y-64182666D01*
X190056857Y-64135047D01*
X190199714Y-64135047D01*
X190294952Y-64182666D01*
X190342571Y-64230285D01*
X190390190Y-64325523D01*
X190390190Y-64706476D01*
X190866380Y-62944571D02*
X189866380Y-62944571D01*
X190866380Y-62373142D01*
X189866380Y-62373142D01*
X189866380Y-61706476D02*
X189866380Y-61516000D01*
X189914000Y-61420761D01*
X190009238Y-61325523D01*
X190199714Y-61277904D01*
X190533047Y-61277904D01*
X190723523Y-61325523D01*
X190818761Y-61420761D01*
X190866380Y-61516000D01*
X190866380Y-61706476D01*
X190818761Y-61801714D01*
X190723523Y-61896952D01*
X190533047Y-61944571D01*
X190199714Y-61944571D01*
X190009238Y-61896952D01*
X189914000Y-61801714D01*
X189866380Y-61706476D01*
X190866380Y-60849333D02*
X189866380Y-60849333D01*
X189866380Y-60611238D01*
X189914000Y-60468380D01*
X190009238Y-60373142D01*
X190104476Y-60325523D01*
X190294952Y-60277904D01*
X190437809Y-60277904D01*
X190628285Y-60325523D01*
X190723523Y-60373142D01*
X190818761Y-60468380D01*
X190866380Y-60611238D01*
X190866380Y-60849333D01*
X190342571Y-59849333D02*
X190342571Y-59516000D01*
X190866380Y-59373142D02*
X190866380Y-59849333D01*
X189866380Y-59849333D01*
X189866380Y-59373142D01*
X192428761Y-72706476D02*
X192476380Y-72563619D01*
X192476380Y-72325523D01*
X192428761Y-72230285D01*
X192381142Y-72182666D01*
X192285904Y-72135047D01*
X192190666Y-72135047D01*
X192095428Y-72182666D01*
X192047809Y-72230285D01*
X192000190Y-72325523D01*
X191952571Y-72516000D01*
X191904952Y-72611238D01*
X191857333Y-72658857D01*
X191762095Y-72706476D01*
X191666857Y-72706476D01*
X191571619Y-72658857D01*
X191524000Y-72611238D01*
X191476380Y-72516000D01*
X191476380Y-72277904D01*
X191524000Y-72135047D01*
X192428761Y-71325523D02*
X192476380Y-71420761D01*
X192476380Y-71611238D01*
X192428761Y-71706476D01*
X192333523Y-71754095D01*
X191952571Y-71754095D01*
X191857333Y-71706476D01*
X191809714Y-71611238D01*
X191809714Y-71420761D01*
X191857333Y-71325523D01*
X191952571Y-71277904D01*
X192047809Y-71277904D01*
X192143047Y-71754095D01*
X191809714Y-70849333D02*
X192476380Y-70849333D01*
X191904952Y-70849333D02*
X191857333Y-70801714D01*
X191809714Y-70706476D01*
X191809714Y-70563619D01*
X191857333Y-70468380D01*
X191952571Y-70420761D01*
X192476380Y-70420761D01*
X192476380Y-69944571D02*
X191809714Y-69944571D01*
X191476380Y-69944571D02*
X191524000Y-69992190D01*
X191571619Y-69944571D01*
X191524000Y-69896952D01*
X191476380Y-69944571D01*
X191571619Y-69944571D01*
X192476380Y-69325523D02*
X192428761Y-69420761D01*
X192381142Y-69468380D01*
X192285904Y-69516000D01*
X192000190Y-69516000D01*
X191904952Y-69468380D01*
X191857333Y-69420761D01*
X191809714Y-69325523D01*
X191809714Y-69182666D01*
X191857333Y-69087428D01*
X191904952Y-69039809D01*
X192000190Y-68992190D01*
X192285904Y-68992190D01*
X192381142Y-69039809D01*
X192428761Y-69087428D01*
X192476380Y-69182666D01*
X192476380Y-69325523D01*
X192476380Y-68563619D02*
X191809714Y-68563619D01*
X192000190Y-68563619D02*
X191904952Y-68516000D01*
X191857333Y-68468380D01*
X191809714Y-68373142D01*
X191809714Y-68277904D01*
X192476380Y-67182666D02*
X191476380Y-67182666D01*
X191476380Y-66944571D01*
X191524000Y-66801714D01*
X191619238Y-66706476D01*
X191714476Y-66658857D01*
X191904952Y-66611238D01*
X192047809Y-66611238D01*
X192238285Y-66658857D01*
X192333523Y-66706476D01*
X192428761Y-66801714D01*
X192476380Y-66944571D01*
X192476380Y-67182666D01*
X192428761Y-65801714D02*
X192476380Y-65896952D01*
X192476380Y-66087428D01*
X192428761Y-66182666D01*
X192333523Y-66230285D01*
X191952571Y-66230285D01*
X191857333Y-66182666D01*
X191809714Y-66087428D01*
X191809714Y-65896952D01*
X191857333Y-65801714D01*
X191952571Y-65754095D01*
X192047809Y-65754095D01*
X192143047Y-66230285D01*
X192428761Y-65373142D02*
X192476380Y-65277904D01*
X192476380Y-65087428D01*
X192428761Y-64992190D01*
X192333523Y-64944571D01*
X192285904Y-64944571D01*
X192190666Y-64992190D01*
X192143047Y-65087428D01*
X192143047Y-65230285D01*
X192095428Y-65325523D01*
X192000190Y-65373142D01*
X191952571Y-65373142D01*
X191857333Y-65325523D01*
X191809714Y-65230285D01*
X191809714Y-65087428D01*
X191857333Y-64992190D01*
X192476380Y-64516000D02*
X191809714Y-64516000D01*
X191476380Y-64516000D02*
X191524000Y-64563619D01*
X191571619Y-64516000D01*
X191524000Y-64468380D01*
X191476380Y-64516000D01*
X191571619Y-64516000D01*
X191809714Y-63611238D02*
X192619238Y-63611238D01*
X192714476Y-63658857D01*
X192762095Y-63706476D01*
X192809714Y-63801714D01*
X192809714Y-63944571D01*
X192762095Y-64039809D01*
X192428761Y-63611238D02*
X192476380Y-63706476D01*
X192476380Y-63896952D01*
X192428761Y-63992190D01*
X192381142Y-64039809D01*
X192285904Y-64087428D01*
X192000190Y-64087428D01*
X191904952Y-64039809D01*
X191857333Y-63992190D01*
X191809714Y-63896952D01*
X191809714Y-63706476D01*
X191857333Y-63611238D01*
X191809714Y-63135047D02*
X192476380Y-63135047D01*
X191904952Y-63135047D02*
X191857333Y-63087428D01*
X191809714Y-62992190D01*
X191809714Y-62849333D01*
X191857333Y-62754095D01*
X191952571Y-62706476D01*
X192476380Y-62706476D01*
X191476380Y-61611238D02*
X191476380Y-61039809D01*
X192476380Y-61325523D02*
X191476380Y-61325523D01*
X192428761Y-60325523D02*
X192476380Y-60420761D01*
X192476380Y-60611238D01*
X192428761Y-60706476D01*
X192333523Y-60754095D01*
X191952571Y-60754095D01*
X191857333Y-60706476D01*
X191809714Y-60611238D01*
X191809714Y-60420761D01*
X191857333Y-60325523D01*
X191952571Y-60277904D01*
X192047809Y-60277904D01*
X192143047Y-60754095D01*
X192476380Y-59420761D02*
X191952571Y-59420761D01*
X191857333Y-59468380D01*
X191809714Y-59563619D01*
X191809714Y-59754095D01*
X191857333Y-59849333D01*
X192428761Y-59420761D02*
X192476380Y-59516000D01*
X192476380Y-59754095D01*
X192428761Y-59849333D01*
X192333523Y-59896952D01*
X192238285Y-59896952D01*
X192143047Y-59849333D01*
X192095428Y-59754095D01*
X192095428Y-59516000D01*
X192047809Y-59420761D01*
X192476380Y-58944571D02*
X191809714Y-58944571D01*
X191904952Y-58944571D02*
X191857333Y-58896952D01*
X191809714Y-58801714D01*
X191809714Y-58658857D01*
X191857333Y-58563619D01*
X191952571Y-58516000D01*
X192476380Y-58516000D01*
X191952571Y-58516000D02*
X191857333Y-58468380D01*
X191809714Y-58373142D01*
X191809714Y-58230285D01*
X191857333Y-58135047D01*
X191952571Y-58087428D01*
X192476380Y-58087428D01*
X191809714Y-56420761D02*
X192476380Y-56420761D01*
X191428761Y-56658857D02*
X192143047Y-56896952D01*
X192143047Y-56277904D01*
X194038761Y-68992190D02*
X194086380Y-68849333D01*
X194086380Y-68611238D01*
X194038761Y-68516000D01*
X193991142Y-68468380D01*
X193895904Y-68420761D01*
X193800666Y-68420761D01*
X193705428Y-68468380D01*
X193657809Y-68516000D01*
X193610190Y-68611238D01*
X193562571Y-68801714D01*
X193514952Y-68896952D01*
X193467333Y-68944571D01*
X193372095Y-68992190D01*
X193276857Y-68992190D01*
X193181619Y-68944571D01*
X193134000Y-68896952D01*
X193086380Y-68801714D01*
X193086380Y-68563619D01*
X193134000Y-68420761D01*
X193419714Y-67992190D02*
X194419714Y-67992190D01*
X193467333Y-67992190D02*
X193419714Y-67896952D01*
X193419714Y-67706476D01*
X193467333Y-67611238D01*
X193514952Y-67563619D01*
X193610190Y-67516000D01*
X193895904Y-67516000D01*
X193991142Y-67563619D01*
X194038761Y-67611238D01*
X194086380Y-67706476D01*
X194086380Y-67896952D01*
X194038761Y-67992190D01*
X194086380Y-67087428D02*
X193419714Y-67087428D01*
X193610190Y-67087428D02*
X193514952Y-67039809D01*
X193467333Y-66992190D01*
X193419714Y-66896952D01*
X193419714Y-66801714D01*
X194086380Y-66468380D02*
X193419714Y-66468380D01*
X193086380Y-66468380D02*
X193134000Y-66516000D01*
X193181619Y-66468380D01*
X193134000Y-66420761D01*
X193086380Y-66468380D01*
X193181619Y-66468380D01*
X193419714Y-65992190D02*
X194086380Y-65992190D01*
X193514952Y-65992190D02*
X193467333Y-65944571D01*
X193419714Y-65849333D01*
X193419714Y-65706476D01*
X193467333Y-65611238D01*
X193562571Y-65563619D01*
X194086380Y-65563619D01*
X193419714Y-64658857D02*
X194229238Y-64658857D01*
X194324476Y-64706476D01*
X194372095Y-64754095D01*
X194419714Y-64849333D01*
X194419714Y-64992190D01*
X194372095Y-65087428D01*
X194038761Y-64658857D02*
X194086380Y-64754095D01*
X194086380Y-64944571D01*
X194038761Y-65039809D01*
X193991142Y-65087428D01*
X193895904Y-65135047D01*
X193610190Y-65135047D01*
X193514952Y-65087428D01*
X193467333Y-65039809D01*
X193419714Y-64944571D01*
X193419714Y-64754095D01*
X193467333Y-64658857D01*
X193181619Y-63468380D02*
X193134000Y-63420761D01*
X193086380Y-63325523D01*
X193086380Y-63087428D01*
X193134000Y-62992190D01*
X193181619Y-62944571D01*
X193276857Y-62896952D01*
X193372095Y-62896952D01*
X193514952Y-62944571D01*
X194086380Y-63516000D01*
X194086380Y-62896952D01*
X193086380Y-62277904D02*
X193086380Y-62182666D01*
X193134000Y-62087428D01*
X193181619Y-62039809D01*
X193276857Y-61992190D01*
X193467333Y-61944571D01*
X193705428Y-61944571D01*
X193895904Y-61992190D01*
X193991142Y-62039809D01*
X194038761Y-62087428D01*
X194086380Y-62182666D01*
X194086380Y-62277904D01*
X194038761Y-62373142D01*
X193991142Y-62420761D01*
X193895904Y-62468380D01*
X193705428Y-62516000D01*
X193467333Y-62516000D01*
X193276857Y-62468380D01*
X193181619Y-62420761D01*
X193134000Y-62373142D01*
X193086380Y-62277904D01*
X193181619Y-61563619D02*
X193134000Y-61516000D01*
X193086380Y-61420761D01*
X193086380Y-61182666D01*
X193134000Y-61087428D01*
X193181619Y-61039809D01*
X193276857Y-60992190D01*
X193372095Y-60992190D01*
X193514952Y-61039809D01*
X194086380Y-61611238D01*
X194086380Y-60992190D01*
X193086380Y-60658857D02*
X193086380Y-60039809D01*
X193467333Y-60373142D01*
X193467333Y-60230285D01*
X193514952Y-60135047D01*
X193562571Y-60087428D01*
X193657809Y-60039809D01*
X193895904Y-60039809D01*
X193991142Y-60087428D01*
X194038761Y-60135047D01*
X194086380Y-60230285D01*
X194086380Y-60516000D01*
X194038761Y-60611238D01*
X193991142Y-60658857D01*
%TO.C,Nano1*%
X139866952Y-48966380D02*
X139866952Y-47966380D01*
X140438380Y-48966380D01*
X140438380Y-47966380D01*
X141343142Y-48966380D02*
X141343142Y-48442571D01*
X141295523Y-48347333D01*
X141200285Y-48299714D01*
X141009809Y-48299714D01*
X140914571Y-48347333D01*
X141343142Y-48918761D02*
X141247904Y-48966380D01*
X141009809Y-48966380D01*
X140914571Y-48918761D01*
X140866952Y-48823523D01*
X140866952Y-48728285D01*
X140914571Y-48633047D01*
X141009809Y-48585428D01*
X141247904Y-48585428D01*
X141343142Y-48537809D01*
X141819333Y-48299714D02*
X141819333Y-48966380D01*
X141819333Y-48394952D02*
X141866952Y-48347333D01*
X141962190Y-48299714D01*
X142105047Y-48299714D01*
X142200285Y-48347333D01*
X142247904Y-48442571D01*
X142247904Y-48966380D01*
X142866952Y-48966380D02*
X142771714Y-48918761D01*
X142724095Y-48871142D01*
X142676476Y-48775904D01*
X142676476Y-48490190D01*
X142724095Y-48394952D01*
X142771714Y-48347333D01*
X142866952Y-48299714D01*
X143009809Y-48299714D01*
X143105047Y-48347333D01*
X143152666Y-48394952D01*
X143200285Y-48490190D01*
X143200285Y-48775904D01*
X143152666Y-48871142D01*
X143105047Y-48918761D01*
X143009809Y-48966380D01*
X142866952Y-48966380D01*
X144152666Y-48966380D02*
X143581238Y-48966380D01*
X143866952Y-48966380D02*
X143866952Y-47966380D01*
X143771714Y-48109238D01*
X143676476Y-48204476D01*
X143581238Y-48252095D01*
%TO.C,B_levels1*%
X134207619Y-105294571D02*
X134350476Y-105342190D01*
X134398095Y-105389809D01*
X134445714Y-105485047D01*
X134445714Y-105627904D01*
X134398095Y-105723142D01*
X134350476Y-105770761D01*
X134255238Y-105818380D01*
X133874285Y-105818380D01*
X133874285Y-104818380D01*
X134207619Y-104818380D01*
X134302857Y-104866000D01*
X134350476Y-104913619D01*
X134398095Y-105008857D01*
X134398095Y-105104095D01*
X134350476Y-105199333D01*
X134302857Y-105246952D01*
X134207619Y-105294571D01*
X133874285Y-105294571D01*
X134636190Y-105913619D02*
X135398095Y-105913619D01*
X135779047Y-105818380D02*
X135683809Y-105770761D01*
X135636190Y-105675523D01*
X135636190Y-104818380D01*
X136540952Y-105770761D02*
X136445714Y-105818380D01*
X136255238Y-105818380D01*
X136160000Y-105770761D01*
X136112380Y-105675523D01*
X136112380Y-105294571D01*
X136160000Y-105199333D01*
X136255238Y-105151714D01*
X136445714Y-105151714D01*
X136540952Y-105199333D01*
X136588571Y-105294571D01*
X136588571Y-105389809D01*
X136112380Y-105485047D01*
X136921904Y-105151714D02*
X137160000Y-105818380D01*
X137398095Y-105151714D01*
X138160000Y-105770761D02*
X138064761Y-105818380D01*
X137874285Y-105818380D01*
X137779047Y-105770761D01*
X137731428Y-105675523D01*
X137731428Y-105294571D01*
X137779047Y-105199333D01*
X137874285Y-105151714D01*
X138064761Y-105151714D01*
X138160000Y-105199333D01*
X138207619Y-105294571D01*
X138207619Y-105389809D01*
X137731428Y-105485047D01*
X138779047Y-105818380D02*
X138683809Y-105770761D01*
X138636190Y-105675523D01*
X138636190Y-104818380D01*
X139112380Y-105770761D02*
X139207619Y-105818380D01*
X139398095Y-105818380D01*
X139493333Y-105770761D01*
X139540952Y-105675523D01*
X139540952Y-105627904D01*
X139493333Y-105532666D01*
X139398095Y-105485047D01*
X139255238Y-105485047D01*
X139160000Y-105437428D01*
X139112380Y-105342190D01*
X139112380Y-105294571D01*
X139160000Y-105199333D01*
X139255238Y-105151714D01*
X139398095Y-105151714D01*
X139493333Y-105199333D01*
X140493333Y-105818380D02*
X139921904Y-105818380D01*
X140207619Y-105818380D02*
X140207619Y-104818380D01*
X140112380Y-104961238D01*
X140017142Y-105056476D01*
X139921904Y-105104095D01*
%TO.C,R1*%
X172494380Y-55538666D02*
X172018190Y-55872000D01*
X172494380Y-56110095D02*
X171494380Y-56110095D01*
X171494380Y-55729142D01*
X171542000Y-55633904D01*
X171589619Y-55586285D01*
X171684857Y-55538666D01*
X171827714Y-55538666D01*
X171922952Y-55586285D01*
X171970571Y-55633904D01*
X172018190Y-55729142D01*
X172018190Y-56110095D01*
X172494380Y-54586285D02*
X172494380Y-55157714D01*
X172494380Y-54872000D02*
X171494380Y-54872000D01*
X171637238Y-54967238D01*
X171732476Y-55062476D01*
X171780095Y-55157714D01*
%TO.C,FluidL1*%
X157877142Y-47636571D02*
X157543809Y-47636571D01*
X157543809Y-48160380D02*
X157543809Y-47160380D01*
X158020000Y-47160380D01*
X158543809Y-48160380D02*
X158448571Y-48112761D01*
X158400952Y-48017523D01*
X158400952Y-47160380D01*
X159353333Y-47493714D02*
X159353333Y-48160380D01*
X158924761Y-47493714D02*
X158924761Y-48017523D01*
X158972380Y-48112761D01*
X159067619Y-48160380D01*
X159210476Y-48160380D01*
X159305714Y-48112761D01*
X159353333Y-48065142D01*
X159829523Y-48160380D02*
X159829523Y-47493714D01*
X159829523Y-47160380D02*
X159781904Y-47208000D01*
X159829523Y-47255619D01*
X159877142Y-47208000D01*
X159829523Y-47160380D01*
X159829523Y-47255619D01*
X160734285Y-48160380D02*
X160734285Y-47160380D01*
X160734285Y-48112761D02*
X160639047Y-48160380D01*
X160448571Y-48160380D01*
X160353333Y-48112761D01*
X160305714Y-48065142D01*
X160258095Y-47969904D01*
X160258095Y-47684190D01*
X160305714Y-47588952D01*
X160353333Y-47541333D01*
X160448571Y-47493714D01*
X160639047Y-47493714D01*
X160734285Y-47541333D01*
X161686666Y-48160380D02*
X161210476Y-48160380D01*
X161210476Y-47160380D01*
X162543809Y-48160380D02*
X161972380Y-48160380D01*
X162258095Y-48160380D02*
X162258095Y-47160380D01*
X162162857Y-47303238D01*
X162067619Y-47398476D01*
X161972380Y-47446095D01*
%TO.C,Pulse1*%
X157734285Y-74830380D02*
X157734285Y-73830380D01*
X158115238Y-73830380D01*
X158210476Y-73878000D01*
X158258095Y-73925619D01*
X158305714Y-74020857D01*
X158305714Y-74163714D01*
X158258095Y-74258952D01*
X158210476Y-74306571D01*
X158115238Y-74354190D01*
X157734285Y-74354190D01*
X159162857Y-74163714D02*
X159162857Y-74830380D01*
X158734285Y-74163714D02*
X158734285Y-74687523D01*
X158781904Y-74782761D01*
X158877142Y-74830380D01*
X159020000Y-74830380D01*
X159115238Y-74782761D01*
X159162857Y-74735142D01*
X159781904Y-74830380D02*
X159686666Y-74782761D01*
X159639047Y-74687523D01*
X159639047Y-73830380D01*
X160115238Y-74782761D02*
X160210476Y-74830380D01*
X160400952Y-74830380D01*
X160496190Y-74782761D01*
X160543809Y-74687523D01*
X160543809Y-74639904D01*
X160496190Y-74544666D01*
X160400952Y-74497047D01*
X160258095Y-74497047D01*
X160162857Y-74449428D01*
X160115238Y-74354190D01*
X160115238Y-74306571D01*
X160162857Y-74211333D01*
X160258095Y-74163714D01*
X160400952Y-74163714D01*
X160496190Y-74211333D01*
X161353333Y-74782761D02*
X161258095Y-74830380D01*
X161067619Y-74830380D01*
X160972380Y-74782761D01*
X160924761Y-74687523D01*
X160924761Y-74306571D01*
X160972380Y-74211333D01*
X161067619Y-74163714D01*
X161258095Y-74163714D01*
X161353333Y-74211333D01*
X161400952Y-74306571D01*
X161400952Y-74401809D01*
X160924761Y-74497047D01*
X162353333Y-74830380D02*
X161781904Y-74830380D01*
X162067619Y-74830380D02*
X162067619Y-73830380D01*
X161972380Y-73973238D01*
X161877142Y-74068476D01*
X161781904Y-74116095D01*
%TO.C,R4*%
X178168380Y-65698666D02*
X177692190Y-66032000D01*
X178168380Y-66270095D02*
X177168380Y-66270095D01*
X177168380Y-65889142D01*
X177216000Y-65793904D01*
X177263619Y-65746285D01*
X177358857Y-65698666D01*
X177501714Y-65698666D01*
X177596952Y-65746285D01*
X177644571Y-65793904D01*
X177692190Y-65889142D01*
X177692190Y-66270095D01*
X177501714Y-64841523D02*
X178168380Y-64841523D01*
X177120761Y-65079619D02*
X177835047Y-65317714D01*
X177835047Y-64698666D01*
%TO.C,Accelerometer1*%
X170958571Y-93130666D02*
X171434761Y-93130666D01*
X170863333Y-93416380D02*
X171196666Y-92416380D01*
X171530000Y-93416380D01*
X172291904Y-93368761D02*
X172196666Y-93416380D01*
X172006190Y-93416380D01*
X171910952Y-93368761D01*
X171863333Y-93321142D01*
X171815714Y-93225904D01*
X171815714Y-92940190D01*
X171863333Y-92844952D01*
X171910952Y-92797333D01*
X172006190Y-92749714D01*
X172196666Y-92749714D01*
X172291904Y-92797333D01*
X173149047Y-93368761D02*
X173053809Y-93416380D01*
X172863333Y-93416380D01*
X172768095Y-93368761D01*
X172720476Y-93321142D01*
X172672857Y-93225904D01*
X172672857Y-92940190D01*
X172720476Y-92844952D01*
X172768095Y-92797333D01*
X172863333Y-92749714D01*
X173053809Y-92749714D01*
X173149047Y-92797333D01*
X173958571Y-93368761D02*
X173863333Y-93416380D01*
X173672857Y-93416380D01*
X173577619Y-93368761D01*
X173530000Y-93273523D01*
X173530000Y-92892571D01*
X173577619Y-92797333D01*
X173672857Y-92749714D01*
X173863333Y-92749714D01*
X173958571Y-92797333D01*
X174006190Y-92892571D01*
X174006190Y-92987809D01*
X173530000Y-93083047D01*
X174577619Y-93416380D02*
X174482380Y-93368761D01*
X174434761Y-93273523D01*
X174434761Y-92416380D01*
X175339523Y-93368761D02*
X175244285Y-93416380D01*
X175053809Y-93416380D01*
X174958571Y-93368761D01*
X174910952Y-93273523D01*
X174910952Y-92892571D01*
X174958571Y-92797333D01*
X175053809Y-92749714D01*
X175244285Y-92749714D01*
X175339523Y-92797333D01*
X175387142Y-92892571D01*
X175387142Y-92987809D01*
X174910952Y-93083047D01*
X175815714Y-93416380D02*
X175815714Y-92749714D01*
X175815714Y-92940190D02*
X175863333Y-92844952D01*
X175910952Y-92797333D01*
X176006190Y-92749714D01*
X176101428Y-92749714D01*
X176577619Y-93416380D02*
X176482380Y-93368761D01*
X176434761Y-93321142D01*
X176387142Y-93225904D01*
X176387142Y-92940190D01*
X176434761Y-92844952D01*
X176482380Y-92797333D01*
X176577619Y-92749714D01*
X176720476Y-92749714D01*
X176815714Y-92797333D01*
X176863333Y-92844952D01*
X176910952Y-92940190D01*
X176910952Y-93225904D01*
X176863333Y-93321142D01*
X176815714Y-93368761D01*
X176720476Y-93416380D01*
X176577619Y-93416380D01*
X177339523Y-93416380D02*
X177339523Y-92749714D01*
X177339523Y-92844952D02*
X177387142Y-92797333D01*
X177482380Y-92749714D01*
X177625238Y-92749714D01*
X177720476Y-92797333D01*
X177768095Y-92892571D01*
X177768095Y-93416380D01*
X177768095Y-92892571D02*
X177815714Y-92797333D01*
X177910952Y-92749714D01*
X178053809Y-92749714D01*
X178149047Y-92797333D01*
X178196666Y-92892571D01*
X178196666Y-93416380D01*
X179053809Y-93368761D02*
X178958571Y-93416380D01*
X178768095Y-93416380D01*
X178672857Y-93368761D01*
X178625238Y-93273523D01*
X178625238Y-92892571D01*
X178672857Y-92797333D01*
X178768095Y-92749714D01*
X178958571Y-92749714D01*
X179053809Y-92797333D01*
X179101428Y-92892571D01*
X179101428Y-92987809D01*
X178625238Y-93083047D01*
X179387142Y-92749714D02*
X179768095Y-92749714D01*
X179530000Y-92416380D02*
X179530000Y-93273523D01*
X179577619Y-93368761D01*
X179672857Y-93416380D01*
X179768095Y-93416380D01*
X180482380Y-93368761D02*
X180387142Y-93416380D01*
X180196666Y-93416380D01*
X180101428Y-93368761D01*
X180053809Y-93273523D01*
X180053809Y-92892571D01*
X180101428Y-92797333D01*
X180196666Y-92749714D01*
X180387142Y-92749714D01*
X180482380Y-92797333D01*
X180529999Y-92892571D01*
X180529999Y-92987809D01*
X180053809Y-93083047D01*
X180958571Y-93416380D02*
X180958571Y-92749714D01*
X180958571Y-92940190D02*
X181006190Y-92844952D01*
X181053809Y-92797333D01*
X181149047Y-92749714D01*
X181244285Y-92749714D01*
X182101428Y-93416380D02*
X181529999Y-93416380D01*
X181815714Y-93416380D02*
X181815714Y-92416380D01*
X181720476Y-92559238D01*
X181625238Y-92654476D01*
X181529999Y-92702095D01*
%TO.C,R2*%
X151979333Y-102476380D02*
X151646000Y-102000190D01*
X151407904Y-102476380D02*
X151407904Y-101476380D01*
X151788857Y-101476380D01*
X151884095Y-101524000D01*
X151931714Y-101571619D01*
X151979333Y-101666857D01*
X151979333Y-101809714D01*
X151931714Y-101904952D01*
X151884095Y-101952571D01*
X151788857Y-102000190D01*
X151407904Y-102000190D01*
X152360285Y-101571619D02*
X152407904Y-101524000D01*
X152503142Y-101476380D01*
X152741238Y-101476380D01*
X152836476Y-101524000D01*
X152884095Y-101571619D01*
X152931714Y-101666857D01*
X152931714Y-101762095D01*
X152884095Y-101904952D01*
X152312666Y-102476380D01*
X152931714Y-102476380D01*
%TO.C,R3*%
X152233333Y-115344380D02*
X151900000Y-114868190D01*
X151661904Y-115344380D02*
X151661904Y-114344380D01*
X152042857Y-114344380D01*
X152138095Y-114392000D01*
X152185714Y-114439619D01*
X152233333Y-114534857D01*
X152233333Y-114677714D01*
X152185714Y-114772952D01*
X152138095Y-114820571D01*
X152042857Y-114868190D01*
X151661904Y-114868190D01*
X152566666Y-114344380D02*
X153185714Y-114344380D01*
X152852380Y-114725333D01*
X152995238Y-114725333D01*
X153090476Y-114772952D01*
X153138095Y-114820571D01*
X153185714Y-114915809D01*
X153185714Y-115153904D01*
X153138095Y-115249142D01*
X153090476Y-115296761D01*
X152995238Y-115344380D01*
X152709523Y-115344380D01*
X152614285Y-115296761D01*
X152566666Y-115249142D01*
%TO.C,BodyT1*%
X168870571Y-62368571D02*
X169013428Y-62416190D01*
X169061047Y-62463809D01*
X169108666Y-62559047D01*
X169108666Y-62701904D01*
X169061047Y-62797142D01*
X169013428Y-62844761D01*
X168918190Y-62892380D01*
X168537238Y-62892380D01*
X168537238Y-61892380D01*
X168870571Y-61892380D01*
X168965809Y-61940000D01*
X169013428Y-61987619D01*
X169061047Y-62082857D01*
X169061047Y-62178095D01*
X169013428Y-62273333D01*
X168965809Y-62320952D01*
X168870571Y-62368571D01*
X168537238Y-62368571D01*
X169680095Y-62892380D02*
X169584857Y-62844761D01*
X169537238Y-62797142D01*
X169489619Y-62701904D01*
X169489619Y-62416190D01*
X169537238Y-62320952D01*
X169584857Y-62273333D01*
X169680095Y-62225714D01*
X169822952Y-62225714D01*
X169918190Y-62273333D01*
X169965809Y-62320952D01*
X170013428Y-62416190D01*
X170013428Y-62701904D01*
X169965809Y-62797142D01*
X169918190Y-62844761D01*
X169822952Y-62892380D01*
X169680095Y-62892380D01*
X170870571Y-62892380D02*
X170870571Y-61892380D01*
X170870571Y-62844761D02*
X170775333Y-62892380D01*
X170584857Y-62892380D01*
X170489619Y-62844761D01*
X170442000Y-62797142D01*
X170394380Y-62701904D01*
X170394380Y-62416190D01*
X170442000Y-62320952D01*
X170489619Y-62273333D01*
X170584857Y-62225714D01*
X170775333Y-62225714D01*
X170870571Y-62273333D01*
X171251523Y-62225714D02*
X171489619Y-62892380D01*
X171727714Y-62225714D02*
X171489619Y-62892380D01*
X171394380Y-63130476D01*
X171346761Y-63178095D01*
X171251523Y-63225714D01*
X171965809Y-61892380D02*
X172537238Y-61892380D01*
X172251523Y-62892380D02*
X172251523Y-61892380D01*
X173394380Y-62892380D02*
X172822952Y-62892380D01*
X173108666Y-62892380D02*
X173108666Y-61892380D01*
X173013428Y-62035238D01*
X172918190Y-62130476D01*
X172822952Y-62178095D01*
%TO.C,Pressure1*%
X174069809Y-84809380D02*
X174069809Y-83809380D01*
X174450761Y-83809380D01*
X174546000Y-83857000D01*
X174593619Y-83904619D01*
X174641238Y-83999857D01*
X174641238Y-84142714D01*
X174593619Y-84237952D01*
X174546000Y-84285571D01*
X174450761Y-84333190D01*
X174069809Y-84333190D01*
X175069809Y-84809380D02*
X175069809Y-84142714D01*
X175069809Y-84333190D02*
X175117428Y-84237952D01*
X175165047Y-84190333D01*
X175260285Y-84142714D01*
X175355523Y-84142714D01*
X176069809Y-84761761D02*
X175974571Y-84809380D01*
X175784095Y-84809380D01*
X175688857Y-84761761D01*
X175641238Y-84666523D01*
X175641238Y-84285571D01*
X175688857Y-84190333D01*
X175784095Y-84142714D01*
X175974571Y-84142714D01*
X176069809Y-84190333D01*
X176117428Y-84285571D01*
X176117428Y-84380809D01*
X175641238Y-84476047D01*
X176498380Y-84761761D02*
X176593619Y-84809380D01*
X176784095Y-84809380D01*
X176879333Y-84761761D01*
X176926952Y-84666523D01*
X176926952Y-84618904D01*
X176879333Y-84523666D01*
X176784095Y-84476047D01*
X176641238Y-84476047D01*
X176546000Y-84428428D01*
X176498380Y-84333190D01*
X176498380Y-84285571D01*
X176546000Y-84190333D01*
X176641238Y-84142714D01*
X176784095Y-84142714D01*
X176879333Y-84190333D01*
X177307904Y-84761761D02*
X177403142Y-84809380D01*
X177593619Y-84809380D01*
X177688857Y-84761761D01*
X177736476Y-84666523D01*
X177736476Y-84618904D01*
X177688857Y-84523666D01*
X177593619Y-84476047D01*
X177450761Y-84476047D01*
X177355523Y-84428428D01*
X177307904Y-84333190D01*
X177307904Y-84285571D01*
X177355523Y-84190333D01*
X177450761Y-84142714D01*
X177593619Y-84142714D01*
X177688857Y-84190333D01*
X178593619Y-84142714D02*
X178593619Y-84809380D01*
X178165047Y-84142714D02*
X178165047Y-84666523D01*
X178212666Y-84761761D01*
X178307904Y-84809380D01*
X178450761Y-84809380D01*
X178546000Y-84761761D01*
X178593619Y-84714142D01*
X179069809Y-84809380D02*
X179069809Y-84142714D01*
X179069809Y-84333190D02*
X179117428Y-84237952D01*
X179165047Y-84190333D01*
X179260285Y-84142714D01*
X179355523Y-84142714D01*
X180069809Y-84761761D02*
X179974571Y-84809380D01*
X179784095Y-84809380D01*
X179688857Y-84761761D01*
X179641238Y-84666523D01*
X179641238Y-84285571D01*
X179688857Y-84190333D01*
X179784095Y-84142714D01*
X179974571Y-84142714D01*
X180069809Y-84190333D01*
X180117428Y-84285571D01*
X180117428Y-84380809D01*
X179641238Y-84476047D01*
X181069809Y-84809380D02*
X180498380Y-84809380D01*
X180784095Y-84809380D02*
X180784095Y-83809380D01*
X180688857Y-83952238D01*
X180593619Y-84047476D01*
X180498380Y-84095095D01*
D11*
%TO.C,Nano1*%
X151003000Y-49657000D02*
X132969000Y-49657000D01*
X148336000Y-90424000D02*
X151006000Y-90424000D01*
X135636000Y-90424000D02*
X132966000Y-90424000D01*
X138049000Y-95631000D02*
X138049000Y-93091000D01*
X151003000Y-93091000D02*
X151003000Y-49657000D01*
X132969000Y-54864000D02*
X132969000Y-93091000D01*
X135636000Y-54864000D02*
X135636000Y-52324000D01*
X148336000Y-52324000D02*
X148336000Y-90424000D01*
X138049000Y-95631000D02*
X145923000Y-95631000D01*
X135636000Y-54864000D02*
X135636000Y-90424000D01*
X132969000Y-93091000D02*
X138049000Y-93091000D01*
X145923000Y-95631000D02*
X145923000Y-93091000D01*
X145923000Y-93091000D02*
X151003000Y-93091000D01*
X135636000Y-54864000D02*
X132969000Y-54864000D01*
X135636000Y-52324000D02*
X132969000Y-52324000D01*
X132969000Y-49657000D02*
X132969000Y-52324000D01*
X148336000Y-52324000D02*
X151006000Y-52324000D01*
%TO.C,B_levels1*%
X135830000Y-108966000D02*
X138490000Y-108966000D01*
X135830000Y-107696000D02*
X135830000Y-106366000D01*
X135830000Y-106366000D02*
X137160000Y-106366000D01*
X135830000Y-108966000D02*
X135830000Y-111566000D01*
X138490000Y-108966000D02*
X138490000Y-111566000D01*
X135830000Y-111566000D02*
X138490000Y-111566000D01*
%TO.C,R1*%
X168302000Y-52102000D02*
X168302000Y-58642000D01*
X170712000Y-52102000D02*
X171042000Y-52102000D01*
X168302000Y-58642000D02*
X168632000Y-58642000D01*
X168632000Y-52102000D02*
X168302000Y-52102000D01*
X171042000Y-58642000D02*
X170712000Y-58642000D01*
X171042000Y-52102000D02*
X171042000Y-58642000D01*
%TO.C,FluidL1*%
X161350000Y-51308000D02*
X161350000Y-58988000D01*
X158690000Y-51308000D02*
X161350000Y-51308000D01*
X158690000Y-51308000D02*
X158690000Y-58988000D01*
X158690000Y-58988000D02*
X161350000Y-58988000D01*
X158690000Y-48708000D02*
X160020000Y-48708000D01*
X158690000Y-50038000D02*
X158690000Y-48708000D01*
%TO.C,Pulse1*%
X158690000Y-76708000D02*
X158690000Y-75378000D01*
X158690000Y-77978000D02*
X161350000Y-77978000D01*
X158690000Y-83118000D02*
X161350000Y-83118000D01*
X158690000Y-75378000D02*
X160020000Y-75378000D01*
X158690000Y-77978000D02*
X158690000Y-83118000D01*
X161350000Y-77978000D02*
X161350000Y-83118000D01*
%TO.C,R4*%
X181126000Y-68802000D02*
X181456000Y-68802000D01*
X179046000Y-68802000D02*
X178716000Y-68802000D01*
X181456000Y-62262000D02*
X181126000Y-62262000D01*
X178716000Y-68802000D02*
X178716000Y-62262000D01*
X181456000Y-68802000D02*
X181456000Y-62262000D01*
X178716000Y-62262000D02*
X179046000Y-62262000D01*
D12*
%TO.C,Accelerometer1*%
X189484000Y-113030000D02*
X189484000Y-95250000D01*
X163830000Y-113030000D02*
X163830000Y-95250000D01*
D11*
X165557200Y-112268000D02*
G75*
G03*
X165557200Y-112268000I-203200J0D01*
G01*
%TO.C,R2*%
X148876000Y-103354000D02*
X148876000Y-103024000D01*
X148876000Y-105434000D02*
X148876000Y-105764000D01*
X155416000Y-105764000D02*
X155416000Y-105434000D01*
X155416000Y-103024000D02*
X155416000Y-103354000D01*
X148876000Y-105764000D02*
X155416000Y-105764000D01*
X148876000Y-103024000D02*
X155416000Y-103024000D01*
%TO.C,R3*%
X149130000Y-111152000D02*
X149130000Y-111482000D01*
X155670000Y-111482000D02*
X155670000Y-111152000D01*
X149130000Y-113892000D02*
X149130000Y-113562000D01*
X155670000Y-113562000D02*
X155670000Y-113892000D01*
X155670000Y-113892000D02*
X149130000Y-113892000D01*
X155670000Y-111152000D02*
X149130000Y-111152000D01*
%TO.C,BodyT1*%
X169612000Y-63440000D02*
X170942000Y-63440000D01*
X169612000Y-71180000D02*
X172272000Y-71180000D01*
X169612000Y-64770000D02*
X169612000Y-63440000D01*
X172272000Y-66040000D02*
X172272000Y-71180000D01*
X169612000Y-66040000D02*
X169612000Y-71180000D01*
X169612000Y-66040000D02*
X172272000Y-66040000D01*
%TO.C,Pressure1*%
X176216000Y-80757000D02*
X176216000Y-75617000D01*
X178876000Y-82027000D02*
X178876000Y-83357000D01*
X178876000Y-83357000D02*
X177546000Y-83357000D01*
X178876000Y-75617000D02*
X176216000Y-75617000D01*
X178876000Y-80757000D02*
X176216000Y-80757000D01*
X178876000Y-80757000D02*
X178876000Y-75617000D01*
%TD*%
M02*
