%TF.GenerationSoftware,KiCad,Pcbnew,(6.0.2-0)*%
%TF.CreationDate,2023-03-25T20:23:27-04:00*%
%TF.ProjectId,SensorNode_PCB,53656e73-6f72-44e6-9f64-655f5043422e,v01*%
%TF.SameCoordinates,Original*%
%TF.FileFunction,Soldermask,Bot*%
%TF.FilePolarity,Negative*%
%FSLAX46Y46*%
G04 Gerber Fmt 4.6, Leading zero omitted, Abs format (unit mm)*
G04 Created by KiCad (PCBNEW (6.0.2-0)) date 2023-03-25 20:23:27*
%MOMM*%
%LPD*%
G01*
G04 APERTURE LIST*
%ADD10R,1.600000X1.600000*%
%ADD11O,1.600000X1.600000*%
%ADD12R,1.700000X1.700000*%
%ADD13O,1.700000X1.700000*%
%ADD14C,1.600000*%
%ADD15C,1.782000*%
G04 APERTURE END LIST*
D10*
%TO.C,Nano1*%
X134366000Y-53594000D03*
D11*
X134366000Y-56134000D03*
X134366000Y-58674000D03*
X134366000Y-61214000D03*
X134366000Y-63754000D03*
X134366000Y-66294000D03*
X134366000Y-68834000D03*
X134366000Y-71374000D03*
X134366000Y-73914000D03*
X134366000Y-76454000D03*
X134366000Y-78994000D03*
X134366000Y-81534000D03*
X134366000Y-84074000D03*
X134366000Y-86614000D03*
X134366000Y-89154000D03*
X149606000Y-89154000D03*
X149606000Y-86614000D03*
X149606000Y-84074000D03*
X149606000Y-81534000D03*
X149606000Y-78994000D03*
X149606000Y-76454000D03*
X149606000Y-73914000D03*
X149606000Y-71374000D03*
X149606000Y-68834000D03*
X149606000Y-66294000D03*
X149606000Y-63754000D03*
X149606000Y-61214000D03*
X149606000Y-58674000D03*
X149606000Y-56134000D03*
X149606000Y-53594000D03*
%TD*%
D12*
%TO.C,B_levels1*%
X137160000Y-107696000D03*
D13*
X137160000Y-110236000D03*
%TD*%
D14*
%TO.C,R1*%
X169672000Y-51562000D03*
D11*
X169672000Y-59182000D03*
%TD*%
D12*
%TO.C,FluidL1*%
X160020000Y-50038000D03*
D13*
X160020000Y-52578000D03*
X160020000Y-55118000D03*
X160020000Y-57658000D03*
%TD*%
D12*
%TO.C,Pulse1*%
X160020000Y-76708000D03*
D13*
X160020000Y-79248000D03*
X160020000Y-81788000D03*
%TD*%
D14*
%TO.C,R4*%
X180086000Y-69342000D03*
D11*
X180086000Y-61722000D03*
%TD*%
D15*
%TO.C,Accelerometer1*%
X166370000Y-110490000D03*
X168910000Y-110490000D03*
X171450000Y-110490000D03*
X173990000Y-110490000D03*
X176530000Y-110490000D03*
X179070000Y-110490000D03*
X181610000Y-110490000D03*
X184150000Y-110490000D03*
X186690000Y-110490000D03*
X171450000Y-97790000D03*
X173990000Y-97790000D03*
X176530000Y-97790000D03*
X179070000Y-97790000D03*
X181610000Y-97790000D03*
%TD*%
D14*
%TO.C,R2*%
X148336000Y-104394000D03*
D11*
X155956000Y-104394000D03*
%TD*%
D14*
%TO.C,R3*%
X156210000Y-112522000D03*
D11*
X148590000Y-112522000D03*
%TD*%
D12*
%TO.C,BodyT1*%
X170942000Y-64770000D03*
D13*
X170942000Y-67310000D03*
X170942000Y-69850000D03*
%TD*%
D12*
%TO.C,Pressure1*%
X177546000Y-82027000D03*
D13*
X177546000Y-79487000D03*
X177546000Y-76947000D03*
%TD*%
M02*
